<svg width="15" height="15" viewBox="0 0 15 15" fill="none" xmlns="http://www.w3.org/2000/svg">
<path fill-rule="evenodd" clip-rule="evenodd" d="M6.66951 1.52675C7.07478 0.59216 8.40016 0.592158 8.80542 1.52675L10.0314 4.35387L13.099 4.64618C14.113 4.74281 14.5226 6.00332 13.759 6.67755L11.4491 8.71712L12.119 11.7249C12.3405 12.7192 11.2682 13.4983 10.391 12.9804L7.73747 11.4138L5.08392 12.9804C4.20671 13.4983 3.13446 12.7192 3.35593 11.7249L4.02586 8.71712L1.71594 6.67755C0.952334 6.00332 1.3619 4.74281 2.37598 4.64618L5.44357 4.35387L6.66951 1.52675ZM8.96341 4.81698L7.73747 1.98985L6.51153 4.81698C6.34286 5.20595 5.97604 5.47245 5.55399 5.51267L2.4864 5.80497L4.79632 7.84454C5.11413 8.12516 5.25424 8.55637 5.16206 8.97019L4.49213 11.978L7.14568 10.4114C7.51077 10.1958 7.96417 10.1958 8.32926 10.4114L10.9828 11.978L10.3129 8.97019C10.2207 8.55637 10.3608 8.12516 10.6786 7.84454L12.9885 5.80497L9.92094 5.51267C9.49889 5.47245 9.13208 5.20594 8.96341 4.81698Z" fill="#B3B7BC"/>
</svg>
