<svg width="17" height="17" viewBox="0 0 17 17" fill="none" xmlns="http://www.w3.org/2000/svg">
<path fill-rule="evenodd" clip-rule="evenodd" d="M3.05827 2.72409C2.99316 2.71918 2.90281 2.71874 2.73336 2.71874H1.63053C1.26234 2.71874 0.963867 2.42027 0.963867 2.05208C0.963867 1.68389 1.26234 1.38541 1.63053 1.38541H2.73336C2.73965 1.38541 2.74593 1.38541 2.75222 1.38541C2.89532 1.38539 3.03702 1.38537 3.15845 1.39452C3.29357 1.4047 3.45056 1.42862 3.61297 1.50106C3.84154 1.60302 4.0368 1.76725 4.17641 1.97497C4.27561 2.12256 4.32607 2.27313 4.35925 2.40451C4.38907 2.52258 4.41333 2.66218 4.43784 2.80318C4.43891 2.80937 4.43999 2.81556 4.44106 2.82175L4.59991 3.73513L13.2759 3.99195C13.6159 4.002 13.9097 4.01069 14.1517 4.03734C14.4074 4.06551 14.661 4.11847 14.9042 4.24806C15.2728 4.44442 15.5707 4.75123 15.7561 5.12546C15.8784 5.37243 15.9238 5.62745 15.9444 5.88393C15.9639 6.12658 15.9639 6.42052 15.9639 6.76065V6.80981C15.9639 7.12946 15.9639 7.40673 15.946 7.63666C15.927 7.8805 15.8851 8.1227 15.7734 8.36001C15.6034 8.72121 15.3291 9.02326 14.986 9.22729C14.7606 9.36134 14.5235 9.42635 14.2826 9.46874C14.0555 9.50871 13.7795 9.5354 13.4614 9.56618L6.97213 10.1942C6.646 10.2257 6.36343 10.2531 6.12768 10.2573C5.8779 10.2616 5.62747 10.2422 5.37606 10.1499C4.99901 10.0114 4.6724 9.76254 4.43878 9.43578C4.283 9.21791 4.19782 8.98161 4.13575 8.73963C4.07717 8.51123 4.02854 8.23155 3.97241 7.90875L3.12745 3.05021C3.09842 2.88327 3.0825 2.79433 3.06651 2.73102C3.06595 2.72877 3.0654 2.72664 3.06487 2.72461C3.06278 2.72444 3.06058 2.72426 3.05827 2.72409ZM4.8331 5.07595L5.28183 7.65614C5.34336 8.00997 5.38337 8.23716 5.42728 8.40837C5.46916 8.57166 5.50229 8.63078 5.52339 8.6603C5.60127 8.76921 5.71014 8.85216 5.83582 8.89833C5.86988 8.91084 5.93568 8.92709 6.10423 8.92412C6.28095 8.92102 6.5106 8.89928 6.86808 8.86468L13.309 8.24137C13.6579 8.2076 13.8817 8.18547 14.0516 8.15558C14.2134 8.12711 14.2738 8.09956 14.3046 8.08124C14.419 8.01323 14.5104 7.91255 14.567 7.79214C14.5823 7.75972 14.6039 7.69695 14.6167 7.53315C14.6301 7.3612 14.6305 7.13633 14.6305 6.78574C14.6305 6.41341 14.63 6.1735 14.6154 5.99061C14.6013 5.81561 14.5775 5.75001 14.5613 5.71728C14.4995 5.59254 14.4002 5.49027 14.2773 5.42481C14.2451 5.40764 14.1802 5.38188 14.0057 5.36266C13.8233 5.34257 13.5835 5.33498 13.2114 5.32396L4.8331 5.07595Z" fill="white"/>
<path fill-rule="evenodd" clip-rule="evenodd" d="M6.63053 12.3854C6.26234 12.3854 5.96387 12.6839 5.96387 13.0521C5.96387 13.4203 6.26234 13.7187 6.63053 13.7187C6.99872 13.7187 7.2972 13.4203 7.2972 13.0521C7.2972 12.6839 6.99872 12.3854 6.63053 12.3854ZM4.63053 13.0521C4.63053 11.9475 5.52596 11.0521 6.63053 11.0521C7.7351 11.0521 8.63053 11.9475 8.63053 13.0521C8.63053 14.1566 7.7351 15.0521 6.63053 15.0521C5.52596 15.0521 4.63053 14.1566 4.63053 13.0521Z" fill="white"/>
<path fill-rule="evenodd" clip-rule="evenodd" d="M12.9639 12.3854C12.5957 12.3854 12.2972 12.6839 12.2972 13.0521C12.2972 13.4203 12.5957 13.7187 12.9639 13.7187C13.3321 13.7187 13.6305 13.4203 13.6305 13.0521C13.6305 12.6839 13.3321 12.3854 12.9639 12.3854ZM10.9639 13.0521C10.9639 11.9475 11.8593 11.0521 12.9639 11.0521C14.0684 11.0521 14.9639 11.9475 14.9639 13.0521C14.9639 14.1566 14.0684 15.0521 12.9639 15.0521C11.8593 15.0521 10.9639 14.1566 10.9639 13.0521Z" fill="white"/>
</svg>
