<svg width="17" height="16" viewBox="0 0 17 16" fill="none" xmlns="http://www.w3.org/2000/svg">
<path fill-rule="evenodd" clip-rule="evenodd" d="M4.80253 6.33331C5.17072 6.33331 5.4692 6.63179 5.4692 6.99998L5.4692 14.5C5.4692 14.8682 5.17072 15.1666 4.80253 15.1666C4.43434 15.1666 4.13586 14.8682 4.13586 14.5L4.13586 6.99998C4.13586 6.63179 4.43434 6.33331 4.80253 6.33331Z" fill="white"/>
<path fill-rule="evenodd" clip-rule="evenodd" d="M4.80253 0.833313C5.17072 0.833313 5.4692 1.13179 5.4692 1.49998V3.49998C5.4692 3.86817 5.17072 4.16665 4.80253 4.16665C4.43434 4.16665 4.13586 3.86817 4.13586 3.49998V1.49998C4.13586 1.13179 4.43434 0.833313 4.80253 0.833313Z" fill="white"/>
<path fill-rule="evenodd" clip-rule="evenodd" d="M1.13586 4.83331C1.13586 3.72874 2.03129 2.83331 3.13586 2.83331H6.4692C7.57377 2.83331 8.4692 3.72874 8.4692 4.83331V5.66665C8.4692 6.77122 7.57377 7.66665 6.4692 7.66665H3.13586C2.03129 7.66665 1.13586 6.77122 1.13586 5.66665V4.83331ZM3.13586 4.16665C2.76767 4.16665 2.4692 4.46512 2.4692 4.83331V5.66665C2.4692 6.03484 2.76767 6.33331 3.13586 6.33331H6.4692C6.83739 6.33331 7.13586 6.03484 7.13586 5.66665V4.83331C7.13586 4.46512 6.83739 4.16665 6.4692 4.16665H3.13586Z" fill="white"/>
<path fill-rule="evenodd" clip-rule="evenodd" d="M12.1359 11.8333C12.5041 11.8333 12.8025 12.1318 12.8025 12.5V14.5C12.8025 14.8682 12.5041 15.1666 12.1359 15.1666C11.7677 15.1666 11.4692 14.8682 11.4692 14.5V12.5C11.4692 12.1318 11.7677 11.8333 12.1359 11.8333Z" fill="white"/>
<path fill-rule="evenodd" clip-rule="evenodd" d="M12.1359 0.833313C12.5041 0.833313 12.8025 1.13179 12.8025 1.49998V8.99998C12.8025 9.36817 12.5041 9.66665 12.1359 9.66665C11.7677 9.66665 11.4692 9.36817 11.4692 8.99998V1.49998C11.4692 1.13179 11.7677 0.833313 12.1359 0.833313Z" fill="white"/>
<path fill-rule="evenodd" clip-rule="evenodd" d="M8.4692 10.3333C8.4692 9.22874 9.36463 8.33331 10.4692 8.33331H13.8025C14.9071 8.33331 15.8025 9.22874 15.8025 10.3333V11.1666C15.8025 12.2712 14.9071 13.1666 13.8025 13.1666H10.4692C9.36463 13.1666 8.4692 12.2712 8.4692 11.1666V10.3333ZM10.4692 9.66665C10.101 9.66665 9.80253 9.96512 9.80253 10.3333V11.1666C9.80253 11.5348 10.101 11.8333 10.4692 11.8333H13.8025C14.1707 11.8333 14.4692 11.5348 14.4692 11.1666V10.3333C14.4692 9.96512 14.1707 9.66665 13.8025 9.66665H10.4692Z" fill="white"/>
</svg>
